<?xml version="1.0" encoding="UTF-8"?>
<svg width="88" height="92" version="1.2" viewBox="0 0 88 92" xmlns="http://www.w3.org/2000/svg">
 <title>Accumulate Final Snow Nodes</title>
 <style>tspan { white-space:pre }
		.shp0 { fill: #00a6fb }</style>
 <path class="shp0" d="m44 0c-4.41 0-8 3.59-8 8s3.59 8 8 8 8-3.59 8-8-3.59-8-8-8zm-36 18c-4.41 0-8 3.59-8 8s3.59 8 8 8 8-3.59 8-8-3.59-8-8-8zm72 0c-4.41 0-8 3.59-8 8s3.59 8 8 8 8-3.59 8-8-3.59-8-8-8zm-38 1.82v14.36c0.65-0.11 1.32-0.18 2-0.18s1.35 0.07 2 0.18v-14.36c-0.65 0.11-1.32 0.18-2 0.18s-1.35-0.07-2-0.18zm26.7 10.17-15.34 8.52c0.83 1.04 1.49 2.22 1.94 3.5l15.34-8.52c-0.84-1.04-1.49-2.22-1.94-3.5zm-49.41 0.04c-0.45 1.27-1.11 2.45-1.95 3.49l15.31 8.62c0.44-1.28 1.08-2.47 1.9-3.52zm24.71 7.97c-4.41 0-8 3.59-8 8s3.59 8 8 8 8-3.59 8-8-3.59-8-8-8zm-11.32 11.93-15.33 8.57c0.84 1.03 1.49 2.22 1.95 3.49l15.3-8.55c-0.82-1.04-1.48-2.23-1.92-3.51zm22.59 0.16c-0.24 0.64-0.51 1.25-0.84 1.83-0.01 0-0.01 0.01-0.01 0.01-0.33 0.58-0.71 1.13-1.12 1.64l15.39 8.46c0.45-1.27 1.11-2.46 1.93-3.5zm-13.27 7.73v14.36c0.65-0.11 1.32-0.18 2-0.18s1.35 0.07 2 0.18v-14.36c-0.65 0.11-1.32 0.18-2 0.18s-1.35-0.07-2-0.18zm-34 0.18c-4.41 0-8 3.59-8 8s3.59 8 8 8 8-3.59 8-8-3.59-8-8-8zm72 0c-4.41 0-8 3.59-8 8s3.59 8 8 8 8-3.59 8-8-3.59-8-8-8zm-36 18c-4.41 0-8 3.59-8 8s3.59 8 8 8 8-3.59 8-8-3.59-8-8-8z"/>
</svg>
