<?xml version="1.0" encoding="UTF-8"?>
<svg width="113.54" height="80" version="1.1" viewBox="0 0 113.54 80" xmlns="http://www.w3.org/2000/svg">
 <g transform="translate(.00059842 -6.2786e-5)">
  <path d="m83.339 37.273c0 4.42-3.597 8.013-8.021 8.013-4.425 0-8.001-3.593-8.001-8.013s3.596-8.012 8-8.012a8.01 8.01 0 0 1 8.022 8.012"/>
  <path d="m109.81 3.225c-1.11 1.776-16.082 25.31-17.537 27.55-0.323 0.524-0.667 1.029-0.97 1.533-0.202 0.323-0.424 0.646-0.626 0.97-1.556-6.035-6.607-10.677-12.87-11.666 0.283-0.444 9.072-14.33 11.294-17.862 0.242-0.404 0.485-0.706 1.03-0.706 6.466 0.02 12.91 0.02 19.376 0.02 0.06 0.04 0.121 0.1 0.303 0.161" fill="#3467fe"/>
  <path d="m113.54 71.422c-3.233 3.835-6.87 6.54-11.496 7.63-6.364 1.493-12.405 0.807-17.84-3.109-3.94-2.846-6.345-6.842-8.102-11.282-0.06-0.141-0.122-0.282-0.182-0.464-0.02-0.04-0.02-0.08-0.04-0.121a166.02 166.02 0 0 1-2-5.672c-0.627-1.897-1.233-3.915-1.637-5.63 1.01 0.201 2.04 0.302 3.111 0.302 4.708 0 8.93-2.058 11.82-5.308l0.04-0.04c1.07 2.644 2.182 6.781 3.233 9.99v0.02c0.283 0.888 0.565 1.696 0.848 2.382 1.172 2.906 2.405 5.772 4.748 7.932l0.485 0.424c3.051 2.522 6.708 3.188 10.527 3.31 2.06 0.1 4.121-0.182 6.485-0.364" fill="#0217ff"/>
  <path d="m61.922 45.71c-3.758 5.247-7.819 10.232-12.607 14.652-4.041 3.734-8.344 7.064-13.517 9.082-1.98 0.767-4.02 1.191-6.162 1.17-6.02 0.021-10.345-3.753-11.638-10.05-1.131-5.59-0.565-11.12 1.01-16.51 2.91-9.99 8.022-18.83 14.81-26.68 3.071-3.553 6.607-6.6 11.214-8.074 3.252-1.03 6.526-1.332 9.718 0.303 2.445 1.251 4.162 3.29 5.516 5.61 1.94 3.31 3.151 6.883 4.182 10.536a15.75 15.75 0 0 1 10.87-4.319c0.848 0 1.656 0.06 2.465 0.182 0.06-0.081 0.404-0.626 0.95-1.494-0.728-1.655-1.334-3.169-2.021-4.642-2.162-4.581-5.092-8.537-9.335-11.403-5.01-3.37-10.607-4.46-16.607-3.956-7.658 0.646-14.79 2.866-21.296 6.883-10.364 6.397-18.507 14.955-24.204 25.712-3.657 6.882-5.76 14.209-5.173 22.1 0.748 10.172 5.88 17.458 15.013 21.898 7.112 3.471 14.668 3.774 22.326 2.826 6.364-0.787 12.365-2.866 17.9-6.075 6.709-3.875 12.527-8.941 17.962-14.451 0.182-0.202 0.303-0.484 0.566-0.606-0.626-1.897-1.232-3.915-1.637-5.63a15.791 15.791 0 0 1-10.304-7.064" fill="#0219fa"/>
 </g>
</svg>
