<?xml version="1.0" encoding="UTF-8"?>
<svg width="32" height="28" version="1.1" viewBox="0 0 32 28" xmlns="http://www.w3.org/2000/svg" xmlns:xlink="http://www.w3.org/1999/xlink">
 <title>编组 5</title>
 <defs>
  <polygon id="path-9" points="16 0 16 28 0 28 0 0"/>
  <polygon id="path-11" points="16 0 16 28 0 28 0 0"/>
 </defs>
 <g fill="none" fill-rule="evenodd">
  <g transform="translate(-66,-3699)">
   <g transform="translate(66,3699)">
    <path d="m32 27.726c-0.15552 0.16599-0.37669 0.27354-0.63554 0.27354h-12.988l-2.1173-2.4597c-0.14289-0.16764-0.3788-0.16764-0.524 0l-2.1129 2.4597h-13.001c-0.25064 0-0.46739-0.10154-0.62102-0.25696l10.516-6.7348c0.03578 0.1119 0.141 0.19893 0.27778 0.19893h2.8284l2.1152 2.4597c0.145 0.16806 0.38069 0.16806 0.52379 0l2.1152-2.4597h2.8134c0.13889 0 0.24622-0.09097 0.27989-0.20722z" fill="#d8d8d8"/>
    <mask id="mask-10" fill="#ffffff">
     <use xlink:href="#path-9"/>
    </mask>
    <path d="m16 0v11.831c-0.09766 0-0.1949 0.05012-0.25088 0.14658l-1.4493 2.5394-1.9096 3.3488-0.87911 1.5391-0.04168 0.0736-0.83951 1.4697c-0.04354 0.0778-0.04997 0.16167-0.02509 0.23695l-10.36 6.815c-0.25088-0.26212-0.33402-0.6794-0.12855-1.038l15.144-26.53c0.16566-0.28749 0.45386-0.43197 0.74019-0.43197" fill="#707070" mask="url(#mask-10)"/>
    <g transform="translate(16)">
     <mask id="mask-12" fill="#ffffff">
      <use xlink:href="#path-11"/>
     </mask>
     <path d="m15.771 28-10.374-6.8107c0.022805-0.07344 0.016586-0.15506-0.026952-0.2287l-0.83321-1.4624-0.047891-0.081829-0.87903-1.5401-1.9094-3.3508-1.449-2.5409c-0.056183-0.096516-0.15362-0.14666-0.25086-0.14666v-11.838c0.28797 0 0.57614 0.14456 0.73992 0.43202l15.145 26.546c0.20131 0.3527 0.12439 0.75954-0.11402 1.0218" fill="#9e9e9e" mask="url(#mask-12)"/>
    </g>
   </g>
  </g>
 </g>
</svg>
