<?xml version="1.0" encoding="UTF-8"?>
<svg id="_層_1" xmlns="http://www.w3.org/2000/svg" xmlns:xlink="http://www.w3.org/1999/xlink" viewBox="0 0 432.94 462.59">
  <defs>
    <style>
      .cls-1 {
        fill: none;
      }

      .cls-2 {
        clip-path: url(#clippath);
      }

      .cls-3 {
        fill: #00325a;
      }

      .cls-4 {
        fill: #07f;
      }

      .cls-5 {
        fill: #14aaff;
      }
    </style>
    <clipPath id="clippath">
      <rect class="cls-1" width="432.94" height="462.59" />
    </clipPath>
  </defs>
  <g class="cls-2">
    <g>
      <g>
        <path class="cls-5" d="M225.34,119.86c-21.4,0-42.29,8.25-57.9,22.89-17.13,16.06-27.97,39.77-34.18,62.08-4.07,14.6-6.11,29.74-6.11,44.89,0,4.58,.18,9.12,.55,13.61,.44,5.46,5.76,9.24,11.06,7.82,4.62-1.24,9.47-1.91,14.48-1.91,10.29,0,19.93,2.8,28.2,7.69,.2,.12,.4,.24,.6,.36,13.44,8.01,29.28,12.41,46.18,11.85,44.08-1.46,80.1-37.33,81.72-81.41,1.78-48.22-36.78-87.87-84.6-87.87Zm0,123.35c-21.37,0-38.69-17.32-38.69-38.69s17.33-38.69,38.69-38.69,38.69,17.32,38.69,38.69-17.33,38.69-38.69,38.69Z" />
        <path class="cls-4" d="M190.52,93.21h0c0,11.15-5.85,21.51-15.44,27.19-6.03,3.57-11.67,7.79-16.79,12.6-11.35,10.64-19.82,23.69-26.1,36.62-1.24,2.55-5.06,1.65-5.06-1.18V93.21c0-17.5,14.19-31.69,31.69-31.69h0c17.5,0,31.69,14.19,31.69,31.69Z" />
      </g>
      <g>
        <rect class="cls-3" x="127.13" y="320.88" width="14.63" height="78.59" rx="3.43" ry="3.43" />
        <path class="cls-3" d="M309.91,344.58v6.55c0,1.89-1.53,3.43-3.43,3.43h-7.44c-4.87,0-8.81,3.95-8.81,8.81v32.67c0,1.89-1.53,3.43-3.43,3.43h-7.3c-1.89,0-3.43-1.53-3.43-3.43v-71.73c0-1.89,1.53-3.43,3.43-3.43h7.3c1.89,0,3.43,1.53,3.43,3.43v8.03c0,4.87,3.95,8.81,8.81,8.81h7.44c1.89,0,3.43,1.53,3.43,3.43Z" />
        <path class="cls-3" d="M90.24,341.16h-14.56v-16.85c0-1.89-1.53-3.43-3.43-3.43h-7.31c-1.89,0-3.43,1.53-3.43,3.43v71.73c0,1.89,1.53,3.43,3.43,3.43h25.73c8.05,0,15.34-3.26,20.62-8.54,5.29-5.29,8.56-12.61,8.54-20.69-.04-16.15-13.45-29.08-29.59-29.08Zm-.73,45.4c-5.85,0-10.97-3.09-13.83-7.73-1.52-2.47-2.4-5.39-2.4-8.51s.88-6.04,2.4-8.51c2.86-4.64,7.99-7.73,13.83-7.73,8.97,0,16.24,7.27,16.24,16.24s-7.27,16.24-16.24,16.24Z" />
        <path class="cls-3" d="M179.81,339.56c-16.99,0-30.76,13.77-30.76,30.76s13.77,30.76,30.76,30.76,30.76-13.77,30.76-30.76-13.77-30.76-30.76-30.76Zm0,47c-8.97,0-16.24-7.27-16.24-16.24s7.27-16.24,16.24-16.24,16.24,7.27,16.24,16.24-7.27,16.24-16.24,16.24Z" />
        <path class="cls-3" d="M340.67,339.56c-16.99,0-30.76,13.77-30.76,30.76s13.77,30.76,30.76,30.76,30.76-13.77,30.76-30.76-13.77-30.76-30.76-30.76Zm0,47c-8.97,0-16.24-7.27-16.24-16.24s7.27-16.24,16.24-16.24,16.24,7.27,16.24,16.24-7.27,16.24-16.24,16.24Z" />
        <path class="cls-3" d="M267.5,394.59c-12.44,9.7-30.62,8.51-41.64-3.58-10.63-11.65-10.63-29.74,0-41.4,11.03-12.09,29.2-13.28,41.64-3.58,1.61,1.26,1.73,3.66,.29,5.1l-5.48,5.48c-1.17,1.17-3.01,1.35-4.36,.4-6.64-4.67-15.99-3.79-21.6,2.65-5.27,6.05-5.27,15.23,0,21.28,5.61,6.44,14.97,7.32,21.6,2.65,1.35-.95,3.19-.76,4.36,.4l5.48,5.48c1.45,1.45,1.33,3.85-.29,5.1Z" />
      </g>
    </g>
  </g>
</svg>