<?xml version="1.0" encoding="utf-8"?>
<!-- Generator: Adobe Illustrator 25.4.1, SVG Export Plug-In . SVG Version: 6.00 Build 0)  -->
<svg version="1.0" id="Layer_1" xmlns="http://www.w3.org/2000/svg" xmlns:xlink="http://www.w3.org/1999/xlink" x="0px" y="0px"
	 viewBox="0 0 229.9 224.6" enable-background="new 0 0 229.9 224.6" xml:space="preserve">
<g>
	<defs>
		<rect id="SVGID_1_" y="183.5" width="229.9" height="41.1"/>
	</defs>
	<clipPath id="SVGID_00000062887587086908562510000010617487858763716745_">
		<use xlink:href="#SVGID_1_"  overflow="visible"/>
	</clipPath>
	<g clip-path="url(#SVGID_00000062887587086908562510000010617487858763716745_)">
		<path fill="#0052FF" d="M46.4,195c-8.4,0-14.9,6.3-14.9,14.8c0,8.5,6.4,14.8,14.9,14.8c8.5,0,15-6.4,15-14.8
			C61.4,201.4,55,195,46.4,195z M46.5,218.5c-4.8,0-8.2-3.7-8.2-8.7c0-5,3.4-8.7,8.2-8.7c4.8,0,8.3,3.7,8.3,8.7
			S51.2,218.5,46.5,218.5z M63.2,201.5h4.1v22.6H74v-28.5H63.2V201.5z M14.8,201.1c3.5,0,6.3,2.1,7.3,5.3h7
			c-1.3-6.8-6.9-11.5-14.3-11.5C6.5,195,0,201.3,0,209.8c0,8.5,6.4,14.8,14.9,14.8c7.2,0,12.9-4.6,14.2-11.5h-7
			c-1,3.2-3.8,5.4-7.2,5.4c-4.8,0-8.2-3.7-8.2-8.7C6.7,204.8,10,201.1,14.8,201.1z M189.3,207.1l-4.9-0.7c-2.3-0.3-4-1.1-4-2.9
			c0-2,2.2-3,5.1-3c3.2,0,5.3,1.4,5.7,3.6h6.4c-0.7-5.7-5.1-9.1-11.9-9.1c-7,0-11.7,3.6-11.7,8.7c0,4.8,3,7.7,9.2,8.5l4.9,0.7
			c2.4,0.3,3.7,1.3,3.7,3c0,2.3-2.3,3.2-5.5,3.2c-3.9,0-6.1-1.6-6.5-4h-6.5c0.6,5.6,5,9.5,12.9,9.5c7.2,0,12.1-3.3,12.1-9
			C198.3,210.5,194.8,207.9,189.3,207.1z M70.7,183.8c-2.4,0-4.3,1.8-4.3,4.2s1.8,4.2,4.3,4.2c2.4,0,4.3-1.8,4.3-4.2
			S73.1,183.8,70.7,183.8z M168.1,205.3c0-6.2-3.8-10.3-11.7-10.3c-7.5,0-11.7,3.8-12.6,9.6h6.6c0.3-2.3,2.1-4.1,5.9-4.1
			c3.4,0,5,1.5,5,3.3c0,2.4-3,3-6.8,3.4c-5.1,0.6-11.4,2.3-11.4,8.9c0,5.1,3.8,8.4,9.9,8.4c4.8,0,7.7-2,9.2-5.1
			c0.2,2.8,2.3,4.6,5.3,4.6h3.9v-5.9h-3.3L168.1,205.3L168.1,205.3z M161.5,212.5c0,3.8-3.3,6.6-7.4,6.6c-2.5,0-4.6-1-4.6-3.3
			c0-2.8,3.4-3.6,6.5-3.9c3-0.3,4.6-0.9,5.5-2.2V212.5z M126.3,195c-3.7,0-6.8,1.5-9,4.1v-15.6h-6.6v40.5h6.5v-3.7
			c2.2,2.7,5.4,4.3,9.1,4.3c8,0,14-6.3,14-14.8C140.3,201.3,134.2,195,126.3,195z M125.3,218.5c-4.8,0-8.2-3.7-8.2-8.7
			s3.5-8.7,8.3-8.7c4.8,0,8.2,3.7,8.2,8.7C133.6,214.8,130.1,218.5,125.3,218.5z M94.8,195c-4.3,0-7.1,1.8-8.8,4.2v-3.7h-6.6v28.5
			H86v-15.5c0-4.4,2.8-7.4,6.9-7.4c3.8,0,6.2,2.7,6.2,6.6v16.3h6.6v-16.8C105.7,200.1,102,195,94.8,195z M229.9,208.9
			c0-8.2-6-13.9-14-13.9c-8.5,0-14.8,6.4-14.8,14.8c0,8.9,6.7,14.8,14.9,14.8c6.9,0,12.3-4.1,13.7-9.9h-6.9c-1,2.5-3.4,4-6.7,4
			c-4.3,0-7.5-2.6-8.2-7.3h22L229.9,208.9L229.9,208.9z M208.3,206.7c1.1-4,4-5.9,7.5-5.9c3.8,0,6.6,2.1,7.3,5.9H208.3z"/>
	</g>
</g>
<path fill="#0052FF" d="M114.9,0L114.9,0c47.9,0,86.7,38.8,86.7,86.7l0,0c0,47.9-38.8,86.7-86.7,86.7l0,0
	c-47.9,0-86.7-38.8-86.7-86.7l0,0C28.2,38.8,67,0,114.9,0z"/>
<path fill="#FFFFFF" d="M115,117.2c-16.8,0-30.5-13.6-30.5-30.5S98.1,56.2,115,56.2c15.1,0,27.6,11,30,25.4h30.7
	c-2.6-31.3-28.8-55.9-60.8-55.9c-33.7,0-61,27.3-61,61s27.3,61,61,61c32,0,58.2-24.6,60.8-55.9H145
	C142.6,106.2,130.1,117.2,115,117.2z"/>
</svg>
