<svg id="Layer_1" data-name="Layer 1" xmlns="http://www.w3.org/2000/svg" viewBox="0 0 182.89 183.48"><defs><style>.cls-1{fill:#959595;}.cls-2{fill:#00b6e7;}.cls-3{fill:#fff;}</style></defs><path class="cls-1" d="M90.18,174.3A82.54,82.54,0,1,0,7.64,91.76,82.54,82.54,0,0,0,90.18,174.3"/><polygon class="cls-2" points="152.68 75.5 145.05 75.5 145.05 67.99 144.92 67.99 139.26 67.99 138.67 67.99 138.67 75.5 131.04 75.5 131.04 81.5 138.67 81.5 138.67 89.01 145.05 89.01 145.05 81.5 152.68 81.5 152.68 75.5"/><path class="cls-3" d="M53.49,102.82a14.14,14.14,0,0,1-6.2,1.29c-6.35,0-11.51-4.58-11.51-11.27S40.7,81.77,47.34,81.77a14.8,14.8,0,0,1,8.3,2.29l2.92-5.25c-1.25-.82-4.78-3.2-11.51-3.2-10.6,0-18.1,7.54-18.1,17.23s7.5,17.19,18,17.19c7,0,11-2.53,12.79-3.91V92.89H53.49Z"/><path class="cls-3" d="M78.17,94.21h-5V81.44h5c4.47,0,7.52,2.4,7.52,6.53,0,3.78-3,6.24-7.57,6.24M92.77,88c0-7.71-5.61-12.48-14-12.48H66.43V110h6.78v-9.87h6L85.89,110h8L86,98.63A11.28,11.28,0,0,0,92.77,88"/><rect class="cls-3" x="99.82" y="75.49" width="6.78" height="34.54"/><path class="cls-3" d="M145,93.05h0V92h-6.32v1s-.07,2.52-.18,3.34c-.65,4.83-5.23,7.65-11.09,7.65h-6.24V81.49h6.27v-6h-13V110h13.31c9.57,0,16.55-5.23,17.3-13.64.08-.83,0-3.34,0-3.34"/></svg>