<?xml version="1.0" encoding="UTF-8"?>
<svg width="24.445" height="17.272" fill="none" version="1.1" viewBox="0 0 24.445 17.272" xmlns="http://www.w3.org/2000/svg">
 <path d="m24.381 0.59174c0.8061 10.92-6.2124 16.081-12.504 16.632-5.8496 0.5117-11.356-3.0831-11.839-8.6062-0.39847-4.563 2.4214-6.5056 4.6369-6.6993 2.2787-0.19976 4.1936 1.3719 4.3597 3.2747 0.16 1.8295-0.98138 2.6622-1.7753 2.7315-0.62776 0.05503-1.4176-0.32615-1.4889-1.1446-0.06115-0.70326 0.20585-0.79906 0.14063-1.5462-0.11617-1.3301-1.2759-1.485-1.9108-1.43-0.76839 0.06726-2.1625 0.96417-1.9668 3.1983 0.19668 2.2535 2.3572 4.0341 5.1892 3.7864 3.0562-0.267 5.1841-2.6469 5.3441-5.9848-0.0015-0.17679 0.0358-0.35176 0.109-0.51266l1e-3 -0.00408c0.033-0.06991 0.0715-0.13706 0.1152-0.20078 0.0652-0.09785 0.1488-0.20588 0.2568-0.32411 1e-3 -0.00306 1e-3 -0.00306 0.0031-0.00306 0.0784-0.08867 0.1732-0.18448 0.2802-0.28742 1.335-1.2598 6.1431-4.2308 10.69-3.29 0.0961 0.020603 0.183 0.071735 0.2476 0.14576 0.0647 0.074027 0.1036 0.16698 0.1111 0.26498" fill="url(#paint0_linear_114_266)"/>
 <defs>
  <linearGradient id="paint0_linear_114_266" x1="23.761" x2="7.9366" y1=".63526" y2="23.032" gradientTransform="translate(-5.0651e-8 -.15234)" gradientUnits="userSpaceOnUse">
   <stop stop-color="#11C4D1" offset="0"/>
   <stop stop-color="#0062AD" offset="1"/>
  </linearGradient>
 </defs>
</svg>
