<?xml version="1.0" encoding="UTF-8"?>
<svg width="45.504" height="45.504" fill="none" version="1.1" viewBox="0 0 45.504 45.504" xmlns="http://www.w3.org/2000/svg">
 <g transform="translate(-.5 -.24805)" clip-path="url(#clip0_2856_17617)">
  <path d="m23.252 45.752c12.566 0 22.752-10.186 22.752-22.752 0-12.566-10.186-22.752-22.752-22.752s-22.752 10.186-22.752 22.752c0 12.566 10.186 22.752 22.752 22.752z" fill="#1c68f3"/>
  <path d="m36.985 17.407v7.5557h-23.031l-0.9908 1e-4c1.0487 4.5845 5.2108 8.0089 10.186 8.0089 4.1128 0 7.6702-2.3406 9.372-5.7422h4.4638v6.3466c0 1.5023-1.2374 2.7201-2.7637 2.7201h-22.109c-1.5263 0-2.7637-1.2178-2.7637-2.7201v-16.169zm-7.1144 9.8225c-1.4657 2.109-3.9293 3.493-6.7214 3.493s-5.2557-1.384-6.7214-3.493zm-12.615-8.0091c-2.1658 0-3.9575 1.5762-4.2555 3.6267h2.3558c0.259-0.7892 1.0116-1.36 1.8997-1.36s1.6407 0.5708 1.8997 1.36h2.3558c-0.298-2.0505-2.0897-3.6267-4.2555-3.6267zm11.822 0c-2.1658 0-3.9575 1.5762-4.2555 3.6267h2.3558c0.259-0.7892 1.0116-1.36 1.8997-1.36s1.6407 0.5708 1.8997 1.36h2.3558c-0.298-2.0505-2.0897-3.6267-4.2555-3.6267zm5.1435-10.125c1.5263 0 2.7637 1.2178 2.7637 2.72v3.3245h-27.637v-3.3245c0-1.5022 1.2374-2.72 2.7637-2.72z" clip-rule="evenodd" fill="#fff" fill-rule="evenodd"/>
 </g>
 <defs>
  <clipPath id="clip0_2856_17617">
   <rect transform="translate(.5 .24805)" width="158" height="45.504" fill="#fff"/>
  </clipPath>
 </defs>
</svg>
