<?xml version="1.0" encoding="UTF-8"?>
<svg width="133.8" height="202.3" version="1.1" viewBox="0 0 133.8 202.3" xml:space="preserve" xmlns="http://www.w3.org/2000/svg">
<style type="text/css">
	.st0{fill:#133444;}
	.st1{fill:#C42370;}
	.st2{fill:#1C4D6B;}
	.st3{fill:#1D4259;}
	.st4{fill:#4B6B9A;}
	.st5{fill:#343535;}
	.st6{fill:#3E5578;}
	.st7{fill:#6DB2D8;}
	.st8{fill:#335F8A;}
	.st9{fill:#529BBA;}
</style>
<g id="Layer_2_1_" transform="translate(.1)">
	
		
			
				<polygon class="st0" points="66.8 88.1 131.7 116.3 107.3 166.7 47.7 175.1 2.9 126.7 1.9 116.3 6.8 114.2"/>
				<path class="st1" d="m118.2 85.3c-10.7-12.9-25.9-21.3-42.5-23.5-0.4 0-0.7-0.1-1.1-0.1-5.2-0.6-10.4-0.6-15.6 0-0.4 0-0.7 0.1-1.1 0.1-16.6 2.2-31.8 10.6-42.5 23.5l-10.5 17.5c0 0.2-0.1 0.3-0.2 0.4v0.1l7.2 4.3 46 27.2 8.9 5.2v-65l-8.9 4v-9.7l8.9-4 8.9 4 45.2 20.5z"/>
				<path class="st2" d="m133.7 132.5c-0.1 21.3-9.7 41.4-26.2 54.9-6.3 5.1-13.4 9.1-21.1 11.7-6.3 2.1-12.9 3.2-19.5 3.2-37 0-66.9-32.9-66.9-69.8 0-5.5 0.7-10.9 2-16.2l64.9 38.4 64.9-38.4c1.2 5.3 1.9 10.7 1.9 16.2z"/>
				<polygon points="57.9 69.2 57.9 61.2 59 61.6 66.8 65.2"/>
				<polygon points="66.8 139.9 57.9 134.7 57.9 79 66.8 74.9"/>
				<polygon class="st3" points="129 103.2 66.8 74.9 66.8 139.9"/>
				<polygon class="st4" points="129 103.2 66.8 0 66.8 74.9"/>
				<path class="st5" d="m66.8 74.9v65l-8.9-5.2-53.2-31.5c0-0.2 0.1-0.3 0.2-0.4l7.8-12.9 45.2-20.5v9.8z"/>
				<polygon class="st6" points="57.9 134.7 4.7 103.2 4.6 103.2 4.7 103.1 57.9 79 66.8 74.9 66.8 139.9"/>
				<polygon class="st7" points="4.6 103.2 66.8 0 66.8 74.9"/>
				<path class="st8" d="m41.6 197c0.9 0.4 1.9 0.8 2.8 1.2-0.9-0.4-1.8-0.8-2.8-1.2z"/>
				<path class="st8" d="m44.4 198.1c0.9 0.4 1.9 0.7 2.9 1-1-0.3-1.9-0.6-2.9-1z"/>
				<path class="st8" d="m49.8 199.9c0.8 0.2 1.5 0.4 2.2 0.6z"/>
				<path class="st7" d="m1.9 116.3 64.9 38.4c-0.9 5.8-2.4 11.5-4.7 17-5.2 12.6-15.7 25.8-36 15.7-16.5-13.5-26.1-33.7-26.2-55 0-5.4 0.7-10.8 2-16.1z"/>
				<path class="st9" d="m107.3 187.5c-0.4 0.3 0 0-1.3 1.1l-1.5 1-1.1 0.8c1.1-0.8-0.9 0.6-1.3 0.9-0.4 0.2-0.7 0.4-1.1 0.7l-0.7 0.5c-0.2 0.1-0.5 0.3-0.7 0.5 0 0-0.3 0.3-0.4 0.3 0.4-0.3-0.5 0.2-0.9 0.5-0.5 0.2-0.9 0.4-1.3 0.7l-2 1c-0.4 0.2-0.2 0-0.6 0.3s-0.9 0.4-1.4 0.7 0 0-1.7 0.8c1.7-0.8 0 0-0.9 0.4 0.9-0.4-1.6 0.6-2.7 1-0.4 0.1-2.6 0.8-3 0.9s-0.9 0.3-1.3 0.4c-0.8 0.2-1.5 0.4-2.2 0.6-0.3 0.1-0.6 0.1-0.8 0.2l-0.5 0.1-1.2 0.3c-0.4 0.1-0.7 0.1-1.1 0.2s-0.7 0.1-1 0.2-0.8 0.1-1.1 0.2c-0.2 0-0.4 0-0.5 0.1l-0.8 0.1h-0.4c-0.3 0-0.6 0.1-0.9 0.1s-0.8 0.1-1.2 0.1h-10.2c-0.4 0-0.8-0.1-1.2-0.1-0.3 0-0.6 0-0.9-0.1h-0.4c-0.3 0-0.6-0.1-0.8-0.1s-0.4 0-0.5-0.1c-0.4 0-0.7-0.1-1.1-0.2-0.3 0-0.7-0.1-1-0.2s-0.7-0.1-1.1-0.2l-1.2-0.3-0.5-0.1c-0.3 0-0.6-0.1-0.8-0.2-0.8-0.2-1.5-0.4-2.2-0.6l-1.3-0.4c-0.4-0.1-0.8-0.2-1.2-0.4-1-0.3-1.9-0.7-2.9-1s-1.9-0.8-2.8-1.2c-0.4-0.2-0.9-0.4-1.4-0.6s-1-0.4-1.4-0.7c-0.5-0.2-0.9-0.4-1.3-0.7-0.4-0.2-0.9-0.5-1.3-0.7s-0.7-0.4-1-0.6c-1-0.6-1.6-1-1-0.6l-0.6-0.4-1.1-0.7-0.4-0.2-1-0.7c-0.4-0.3-0.8-0.5-1.2-0.8s-0.9-0.6-1.3-0.9-0.8-0.7-1.1-0.9l-0.4-0.3c-0.4-0.2-0.7-0.5-1-0.8 20.3 10.1 30.7-3.3 35.9-15.8 2.2-5.5 3.8-11.2 4.7-17 0.9 5.9 2.4 11.7 4.7 17.2 5.4 12.4 15.6 25.7 35.9 15.7z"/>
				<path class="st8" d="m81.6 200.5c0.8-0.2 1.5-0.4 2.2-0.6z"/>
				<path class="st8" d="m86.3 199.1c1-0.3 1.9-0.6 2.9-1-1 0.4-1.9 0.7-2.9 1z"/>
				<path class="st8" d="m89 198.2c0.9-0.4 2.1-0.8 3-1.3-1 0.5-2.1 0.9-3 1.3z"/>
				<path class="st4" d="m133.7 132.5c-0.1 21.3-9.7 41.4-26.2 54.9-20.3 10.1-30.8-3.2-36-15.7-2.2-5.5-3.8-11.2-4.7-17l64.9-38.4c1.3 5.3 2 10.7 2 16.2z"/>
			
		
		
		
		
		
		
		
	
</g>
</svg>
