<?xml version="1.0" encoding="UTF-8"?>
<svg width="396" height="317.67" fill="none" version="1.1" viewBox="0 0 396 317.67" xmlns="http://www.w3.org/2000/svg">
 <g transform="translate(0 -9.1553e-5)" clip-path="url(#clip0_24_285)">
  <path d="m0 67.505v182.66c0 37.282 30.14 67.505 67.32 67.505h261.36c37.18 0 67.32-30.223 67.32-67.505v-182.66c0-37.282-30.14-67.505-67.32-67.505h-261.36c-37.18 0-67.32 30.223-67.32 67.505z" fill="#111"/>
  <path d="m0 67.505v182.66c0 37.282 30.14 67.505 67.32 67.505h261.36c37.18 0 67.32-30.223 67.32-67.505v-182.66c0-37.282-30.14-67.505-67.32-67.505h-261.36c-37.18 0-67.32 30.223-67.32 67.505z" fill="url(#paint0_linear_24_285)"/>
  <path d="m99 79.418c0-10.965-8.8648-19.854-19.8-19.854s-19.8 8.8891-19.8 19.854 8.8648 19.854 19.8 19.854 19.8-8.8891 19.8-19.854z" fill="url(#paint1_linear_24_285)"/>
  <path d="m99 79.418c0-10.965-8.8648-19.854-19.8-19.854s-19.8 8.8891-19.8 19.854 8.8648 19.854 19.8 19.854 19.8-8.8891 19.8-19.854z" fill="url(#paint2_linear_24_285)"/>
  <path d="m99 79.418c0-10.965-8.8648-19.854-19.8-19.854s-19.8 8.8891-19.8 19.854 8.8648 19.854 19.8 19.854 19.8-8.8891 19.8-19.854z" fill="url(#paint3_linear_24_285)"/>
  <path d="m99 238.13c0-10.965-8.8648-19.854-19.8-19.854s-19.8 8.889-19.8 19.854c0 10.966 8.8648 19.855 19.8 19.855s19.8-8.889 19.8-19.855z" fill="url(#paint4_linear_24_285)"/>
  <path d="m336.6 158.84c0-10.965-8.865-19.854-19.8-19.854s-19.8 8.889-19.8 19.854 8.865 19.855 19.8 19.855 19.8-8.89 19.8-19.855z" fill="url(#paint5_linear_24_285)"/>
  <path d="m336.6 158.84c0-10.965-8.865-19.854-19.8-19.854s-19.8 8.889-19.8 19.854 8.865 19.855 19.8 19.855 19.8-8.89 19.8-19.855z" fill="url(#paint6_linear_24_285)"/>
  <path d="m316.8 59.563h-158.4c-10.935 0-19.8 8.8891-19.8 19.854s8.865 19.854 19.8 19.854h158.4c10.935 0 19.8-8.8891 19.8-19.854s-8.865-19.854-19.8-19.854z" fill="url(#paint7_linear_24_285)"/>
  <path d="m316.8 218.27h-158.4c-10.935 0-19.8 8.889-19.8 19.854 0 10.966 8.865 19.855 19.8 19.855h158.4c10.935 0 19.8-8.889 19.8-19.855 0-10.965-8.865-19.854-19.8-19.854z" fill="url(#paint8_linear_24_285)"/>
  <path d="m237.6 138.98h-158.4c-10.935 0-19.8 8.889-19.8 19.854s8.8648 19.855 19.8 19.855h158.4c10.935 0 19.8-8.89 19.8-19.855s-8.865-19.854-19.8-19.854z" fill="url(#paint9_linear_24_285)"/>
 </g>
 <defs>
  <linearGradient id="paint0_linear_24_285" x1="198" x2="198" y1=".00013214" y2="318" gradientUnits="userSpaceOnUse">
   <stop stop-color="#1D273D" offset="0"/>
   <stop stop-color="#0D0F13" offset="1"/>
  </linearGradient>
  <linearGradient id="paint1_linear_24_285" x1="65.5" x2="92.5" y1="99" y2="63" gradientUnits="userSpaceOnUse">
   <stop stop-color="#4462FE" offset="0"/>
   <stop stop-color="#7D69FA" offset="1"/>
  </linearGradient>
  <linearGradient id="paint2_linear_24_285" x1="62.88" x2="96.138" y1="99.291" y2="97.591" gradientUnits="userSpaceOnUse">
   <stop stop-color="#3757FD" offset="0"/>
   <stop stop-color="#6980FA" offset="1"/>
  </linearGradient>
  <linearGradient id="paint3_linear_24_285" x1="62.88" x2="96.138" y1="99.291" y2="97.591" gradientUnits="userSpaceOnUse">
   <stop stop-color="#2447FF" offset="0"/>
   <stop stop-color="#6980FA" offset="1"/>
  </linearGradient>
  <linearGradient id="paint4_linear_24_285" x1="65" x2="91.5" y1="251.5" y2="223.5" gradientUnits="userSpaceOnUse">
   <stop stop-color="#BC3EE6" offset="0"/>
   <stop stop-color="#D972F1" offset="1"/>
  </linearGradient>
  <linearGradient id="paint5_linear_24_285" x1="305" x2="329.5" y1="172" y2="146" gradientUnits="userSpaceOnUse">
   <stop stop-color="#29BDFF" offset="0"/>
   <stop stop-color="#96E7FB" offset="1"/>
  </linearGradient>
  <linearGradient id="paint6_linear_24_285" x1="300.18" x2="334.57" y1="178.42" y2="176.77" gradientUnits="userSpaceOnUse">
   <stop stop-color="#23BBFF" offset="0"/>
   <stop stop-color="#85E7FF" offset="1"/>
  </linearGradient>
  <linearGradient id="paint7_linear_24_285" x1="154.5" x2="317.5" y1="99" y2="60" gradientUnits="userSpaceOnUse">
   <stop stop-color="#23BBFF" offset="0"/>
   <stop stop-color="#85E7FF" offset="1"/>
  </linearGradient>
  <linearGradient id="paint8_linear_24_285" x1="156" x2="312.5" y1="258" y2="218" gradientUnits="userSpaceOnUse">
   <stop stop-color="#2447FF" offset="0"/>
   <stop stop-color="#6980FA" offset="1"/>
  </linearGradient>
  <linearGradient id="paint9_linear_24_285" x1="86" x2="235.5" y1="179" y2="139" gradientUnits="userSpaceOnUse">
   <stop stop-color="#6634FF" offset="0"/>
   <stop stop-color="#9C6DFF" offset="1"/>
  </linearGradient>
  <clipPath id="clip0_24_285">
   <rect width="396" height="317.67" fill="#fff"/>
  </clipPath>
 </defs>
</svg>
