<?xml version="1.0" encoding="UTF-8"?>
<svg width="21.634" height="21.634" fill="none" version="1.1" viewBox="0 0 21.634 21.634" xmlns="http://www.w3.org/2000/svg">
 <path d="m10.817 0c5.9737 0 10.817 4.8433 10.817 10.817 0 5.9737-4.8433 10.817-10.817 10.817-5.9737 0-10.817-4.8427-10.817-10.817 0-5.9742 4.8428-10.817 10.817-10.817zm0 17.578c0.896 1e-4 1.7831-0.178 2.6096-0.5237 0.8266-0.3458 1.5762-0.8524 2.2053-1.4904 0.629-0.638 1.125-1.3947 1.459-2.2261 0.3341-0.8314 0.4995-1.7209 0.4868-2.6167-0.0514-3.6411-3.0234-6.6103-6.6644-6.6644h-0.0963c-1.793 0-3.5126 0.71228-4.7805 1.9802s-1.9802 2.9875-1.9802 4.7805c0.88782 0 1.767 0.1749 2.5872 0.5146 0.82024 0.3398 1.5655 0.8378 2.1933 1.4656s1.1258 1.373 1.4655 2.1933c0.3398 0.8202 0.5146 1.6993 0.5146 2.5872z" fill="#5611ea"/>
</svg>
