<?xml version="1.0" encoding="UTF-8"?>
<svg width="49.91" height="49.91" version="1.1" viewBox="0 0 49.91 49.91" xmlns="http://www.w3.org/2000/svg">
 <path d="m49.91 24.955c0 13.782-11.172 24.955-24.955 24.955-13.782 0-24.955-11.173-24.955-24.955 0-13.782 11.173-24.955 24.955-24.955 13.783 0 24.955 11.173 24.955 24.955zm-24.955 24.311c13.427 0 24.312-10.884 24.312-24.311s-10.885-24.311-24.312-24.311c-13.426 0-24.311 10.884-24.311 24.311s10.885 24.311 24.311 24.311z" clip-rule="evenodd" fill="#002825" fill-rule="evenodd"/>
 <path d="m41.359 15.497-2.115-0.1236c-0.151-0.0098-0.293-0.0729-0.401-0.1781-0.109-0.1051-0.176-0.2455-0.19-0.3958l-0.186-1.9556c-6e-3 -0.0327-0.023-0.0622-0.048-0.0835-0.026-0.0213-0.058-0.0329-0.091-0.0329s-0.065 0.0116-0.091 0.0329c-0.025 0.0213-0.042 0.0508-0.048 0.0835l-0.19 1.9556c-0.012 0.151-0.079 0.2923-0.188 0.3978s-0.252 0.1681-0.403 0.1761l-2.115 0.1324c-0.033 0.0059-0.062 0.023-0.083 0.0484-0.022 0.0254-0.033 0.0576-0.033 0.0907 0 0.0332 0.011 0.0652 0.033 0.0907 0.021 0.0254 0.05 0.0425 0.083 0.0483l2.115 0.1237c0.15 0.0106 0.292 0.0741 0.4 0.179 0.108 0.105 0.176 0.2449 0.191 0.3949l0.186 1.9556c5e-3 0.0326 0.023 0.0622 0.048 0.0835 0.025 0.0212 0.058 0.0329 0.091 0.0329s0.065-0.0117 0.09-0.0329c0.026-0.0213 0.043-0.0509 0.049-0.0835l0.185-1.9556c0.015-0.1504 0.082-0.2907 0.19-0.3958 0.109-0.1052 0.251-0.1683 0.402-0.1781l2.119-0.1325c0.032-0.0058 0.062-0.0229 0.083-0.0484 0.021-0.0254 0.033-0.0575 0.033-0.0906 0-0.0332-0.012-0.0653-0.033-0.0907s-0.051-0.0426-0.083-0.0484z" fill="#ef9c32"/>
 <path d="m36.913 22.825 0.349 0.2472c0.308 0.2079 0.549 0.5008 0.693 0.8432 0.07 0.192 0.097 0.3968 0.079 0.6003-0.015 0.1588-0.04 0.3166-0.075 0.4724-0.071 0.3074-0.182 0.6042-0.331 0.8829-0.078 0.1426-0.168 0.2785-0.269 0.4062l-0.049 0.0662 0.062 0.3929c0.02 0.1567 0.03 0.3144 0.031 0.4723-4e-3 0.6259-0.145 1.2434-0.412 1.8092-0.268 0.5659-0.656 1.0663-1.137 1.4664l-0.058 0.0486-0.07 0.0221c-0.618 0.2213-1.251 0.3955-1.894 0.5209-0.657 0.1383-1.329 0.1961-2 0.1722h-0.097c-1.327-0.4213-2.694-0.7024-4.079-0.8388-0.089-0.0078-0.178-0.0148-0.268-0.0219-0.267-0.0208-0.543-0.0423-0.827-0.0885-0.375-0.0586-0.743-0.1532-1.099-0.2825-0.619-0.215-1.269-0.3283-1.925-0.3355h-0.022c-0.191 0.2978-0.319 0.6321-0.374 0.9816s-0.038 0.7067 0.052 1.0491c0.169 0.858 0.466 1.6855 0.883 2.4545 0.477 0.8089 0.905 1.6463 1.28 2.5075 0.202 0.4564 0.35 0.9349 0.441 1.4259 0.096 0.5354 0.056 1.0862-0.115 1.6025l-0.216 0.6136-0.525-0.3885c-0.079-0.0564-0.163-0.1052-0.252-0.1457-0.04 0.2978-0.099 0.5926-0.176 0.8829-0.148 0.5062-0.36 0.9913-0.632 1.4436-0.359-2.8662-2.364-3.6874-4.323-4.49-0.878-0.3594-1.746-0.7151-2.453-1.2489-2.287-1.7261-2.472-3.7436-1.06-7.2752 0.432-1.0862 0.745-2.2154 0.936-3.3684 0.04-0.2604 0.089-0.5165 0.146-0.7725 5e-3 -0.0358 0.012-0.0712 0.022-0.106l0.04-0.181c5e-3 0.1162 8e-3 0.232 0.012 0.3474 7e-3 0.2793 0.015 0.5564 0.05 0.8313 0.021 0.375 0.095 0.7451 0.22 1.0992 0.057 0.1504 0.143 0.2883 0.252 0.4062 0.031 0.0365 0.066 0.0684 0.106 0.1057 0.028 0.0258 0.058 0.0542 0.093 0.0885 0.058 0.0667 0.121 0.1287 0.19 0.1855 0.28 0.215 0.593 0.3848 0.927 0.5032 0.704 0.2462 1.437 0.4034 2.18 0.468 0.716 0.0838 1.444 0.1147 2.177 0.1147h0.11c0.76 0.0056 1.515 0.1338 2.234 0.3797 0.642 0.2171 1.313 0.3361 1.991 0.3532 1.425 0.1372 2.832 0.4228 4.198 0.852 0.582 0.0154 1.165-0.0365 1.735-0.1545 0.406-0.0795 0.808-0.1899 1.205-0.3091 0.888-0.3752 1.475-1.3906 0.274-1.2581-0.284 0.0196-0.565 0.0594-0.843 0.1192-0.217 0.0396-0.432 0.1187-0.661 0.2034-0.205 0.0756-0.422 0.1556-0.664 0.216-0.489 0.115-1 0.1028-1.483-0.0354-0.422-0.1744-0.869-0.2803-1.324-0.3134 0.212-0.1215 0.449-0.1925 0.693-0.2075 0.175-0.0178 0.332-0.0116 0.484-0.0057 0.073 0.0029 0.146 0.0057 0.218 0.0057 0.413 0.0523 0.833 0.0344 1.24-0.0529 0.206-0.0588 0.416-0.172 0.643-0.2943 0.181-0.0981 0.374-0.202 0.584-0.2885 0.461-0.1937 0.954-0.2971 1.453-0.3046h0.3c0.349-0.4856 0.645-1.0242 0.53-1.4656-0.136-0.1822-0.324-0.3191-0.539-0.3929-0.057-0.02-0.168-0.0489-0.312-0.0864-0.526-0.1369-1.491-0.3882-1.869-0.7347-0.282-0.287-0.114-0.8653 1.042-1.1037 0.532-0.0925 1.075-0.1088 1.612-0.0485 0.183 0.032 0.372 0.0153 0.547-0.0486l-0.066-0.0574-0.336-0.2384-0.34-0.256-1.324-1.0109c-0.216-0.1634-0.446-0.3311-0.658-0.468l-0.106-0.0618-0.207-0.0883c-0.137-0.0574-0.274-0.1236-0.411-0.1942-0.423-0.2251-0.814-0.5041-1.165-0.83-1.294-1.0859-2.742-3.7082-3.121-4.5646-0.303-0.6586-0.837-1.1832-1.501-1.4745 0.326-0.0182 0.651 0.0384 0.952 0.1654s0.568 0.3211 0.783 0.5674c0.111 0.0922 0.318 0.3926 0.569 0.7556 0.506 0.7325 1.188 1.7194 1.607 1.7607 0.225-0.0084 0.449-0.0425 0.667-0.1015-0.209-0.2007-0.4-0.4193-0.57-0.6534-0.227-0.2992-0.402-0.6082-0.572-0.9069-0.058-0.1024-0.115-0.2035-0.174-0.3027-0.195-0.3721-0.43-0.7214-0.702-1.0418-0.062-0.0658-0.129-0.1278-0.199-0.1854-0.073-0.0545-0.151-0.1018-0.233-0.1413-0.181-0.0927-0.367-0.1722-0.596-0.2604-0.23-0.0883-0.433-0.1678-0.671-0.287l-0.618-0.309-1.237-0.6004c-0.815-0.3916-1.654-0.7322-2.511-1.0198-0.85-0.2793-1.725-0.4702-2.614-0.5694-0.211-0.0281-0.423-0.0443-0.636-0.0486-0.171-0.0046-0.34 0.0317-0.494 0.106-0.081 0.0355-0.165 0.08-0.255 0.1277-0.111 0.0589-0.231 0.1228-0.367 0.1813l-0.614 0.2825c-0.798 0.4017-1.56 0.8714-2.278 1.4038-0.578 0.3775-1.088 0.849-1.51 1.395 0.625-0.0287 1.25 0.0612 1.841 0.2649-0.796-0.0125-1.588 0.1008-2.348 0.3355-0.373 0.1103-0.737 0.246-1.091 0.4062-0.354 0.1482-0.695 0.3253-1.02 0.5297-0.32 0.185-0.617 0.4089-0.883 0.6666-0.108 0.1092-0.192 0.24-0.247 0.3841-0.075 0.1633-0.145 0.3443-0.212 0.5253-0.255 0.7429-0.458 1.5026-0.609 2.2735-0.319 1.5351-0.438 3.1051-0.353 4.6706 0.063 1.2642 0.392 2.5008 0.967 3.6288 0.543-0.7107 1.072-1.4391 1.585-2.1764 0.653-0.9579 1.275-1.9468 1.832-2.9445 0.29-0.521 0.547-1.066 0.806-1.617 0.238-0.504 0.478-1.013 0.748-1.5129 0.273-0.5348 0.594-1.0445 0.957-1.523 0.188-0.2472 0.406-0.4697 0.649-0.6622 0.24-0.1997 0.537-0.3186 0.848-0.3399-0.989 0.8873-1.761 3.2711-2.525 5.942-0.623 2.1675-2.719 7.1118-4.044 7.231-0.516 0.0309-0.702-0.2163-1.055-0.7195l-0.287-0.3973c-0.508-0.7084-0.896-1.496-1.148-2.3309-0.23-0.8181-0.371-1.6589-0.419-2.5075-0.041-0.8347-0.021-1.6712 0.057-2.5031 0.091-0.8243 0.231-1.6424 0.42-2.4501 0.184-0.8103 0.425-1.6068 0.719-2.3838 0.08-0.1943 0.159-0.3885 0.256-0.5872 0.054-0.1113 0.114-0.2189 0.181-0.3222 0.075-0.1037 0.157-0.2011 0.248-0.2914 0.322-0.3063 0.686-0.5649 1.081-0.7681 0.657-0.34 1.361-0.5796 2.088-0.7108 0.205-0.4548 0.485-0.8713 0.83-1.2317 0.337-0.3501 0.703-0.6706 1.095-0.9579 0.728-0.5847 1.517-1.0894 2.353-1.5054 0.203-0.1015 0.468-0.2207 0.644-0.2958 0.087-0.0367 0.177-0.084 0.276-0.1356 0.104-0.0539 0.216-0.1126 0.343-0.169 0.265-0.1242 0.554-0.1875 0.847-0.1854 0.247 3e-3 0.493 0.0207 0.737 0.053 0.949 0.1069 1.884 0.311 2.79 0.6092 0.893 0.2973 1.766 0.6512 2.614 1.0595l1.254 0.6092 0.622 0.309c0.138 0.0746 0.314 0.1429 0.501 0.2155 0.034 0.0134 0.069 0.0269 0.104 0.0406 0.225 0.0883 0.437 0.181 0.666 0.2958 0.125 0.0625 0.245 0.1349 0.358 0.2163 0.11 0.0881 0.213 0.184 0.309 0.2869 0.339 0.3652 0.635 0.7681 0.883 1.2008l0.03 0.0516c0.456 0.7927 0.88 1.5293 1.537 1.9614l0.525 0.3488v0.0574l-0.145 0.2604-0.486 0.1236c-0.092 0.0285-0.17 0.0918-0.216 0.1766-0.023 0.0422-0.037 0.0889-0.04 0.1369-5e-3 0.0955-5e-3 0.1913 0 0.2869 1e-3 0.1497-0.022 0.2986-0.066 0.4415-0.023 0.0793-0.049 0.1467-0.071 0.204-0.016 0.0416-0.03 0.0779-0.04 0.1094-0.013 0.0307-0.019 0.0637-0.019 0.0971s6e-3 0.0665 0.019 0.0971c0.345 0.3575 0.746 0.6558 1.188 0.883 0.11 0.0618 0.225 0.1147 0.344 0.1677l0.181 0.0707c0.091 0.0411 0.178 0.0898 0.261 0.1456 0.235 0.149 0.429 0.2946 0.63 0.4459 0.025 0.019 0.05 0.0382 0.076 0.0574l1.325 1.0153zm-11.491-2.7989c-0.113 0.011-0.227 0.011-0.34 0-0.759-0.0441-1.13-0.565-1.006-1.0992 0.123-0.5342 0.048-0.7108-0.102-0.7108-0.233 0.0814-0.433 0.2364-0.569 0.4415h-0.031c-8e-3 0.0014-0.017 9e-4 -0.024-0.0014-8e-3 -0.0023-0.015-0.0064-0.021-0.012-6e-3 -0.0055-0.011-0.0124-0.014-0.02-3e-3 -0.0077-4e-3 -0.0159-3e-3 -0.024 0.159-1.108 0.808-1.1566 1.095-1.1566 0.876 0.0651 1.743 0.2129 2.591 0.4414 0.025 4e-3 0.047 0.0153 0.066 0.0324 0.018 0.0171 0.03 0.0393 0.035 0.0636 6e-3 0.0244 3e-3 0.0497-6e-3 0.0727-9e-3 0.0231-0.026 0.0428-0.046 0.0565-0.126 0.1107-0.22 0.2528-0.273 0.4118-0.053 0.1591-0.062 0.3293-0.028 0.4932 0.053 0.5209-0.565 0.927-1.324 1.0109z" clip-rule="evenodd" fill="#002825" fill-rule="evenodd"/>
</svg>
