<?xml version="1.0" encoding="UTF-8"?>
<svg width="38" height="38" fill="none" version="1.1" viewBox="0 0 38 38" xmlns="http://www.w3.org/2000/svg">
 <g clip-path="url(#clip0)">
  <path d="m1.2944 6.4838c-1.2944 2.5412-1.2944 5.8662-1.2944 12.516s0 9.975 1.2944 12.516c1.14 2.2325 2.9569 4.0493 5.1894 5.1893 2.5412 1.2944 5.8662 1.2944 12.516 1.2944s9.975 0 12.516-1.2944c2.2325-1.14 4.0493-2.9568 5.1893-5.1893 1.2944-2.5413 1.2944-5.8663 1.2944-12.516s0-9.975-1.2944-12.516c-1.14-2.2325-2.9568-4.0494-5.1893-5.1894-2.5413-1.2944-5.8663-1.2944-12.516-1.2944s-9.975 0-12.516 1.2944c-2.2325 1.14-4.0494 2.9569-5.1894 5.1894zm27.188 3.7644c0.3325 0 0.6472 0.1366 0.8788 0.3682 0.2315 0.2375 0.3622 0.5581 0.3562 0.8846-0.0593 3.5388-0.1959 6.2463-0.4512 8.3897-0.2494 2.1435-0.6235 3.7347-1.1875 5.0232-0.38 0.8609-0.8491 1.5734-1.4013 2.179-0.7422 0.8016-1.5912 1.3835-2.5175 1.9357-0.396 0.2368-0.8077 0.4706-1.2396 0.7159-0.9215 0.5233-1.9347 1.0987-3.0829 1.8669-0.4156 0.279-0.9559 0.279-1.3715 0-1.1658-0.7772-2.1924-1.3597-3.1223-1.8872-0.2068-0.1173-0.4088-0.2319-0.6065-0.3453-1.0865-0.6294-2.0662-1.2291-2.9212-2.096-0.57-0.57-1.0628-1.2647-1.4547-2.09-0.53439-1.1044-0.89658-2.4403-1.1638-4.1681-0.35626-2.3097-0.53438-5.3319-0.59969-9.5238-0.00594-0.3265 0.11875-0.6471 0.35031-0.8846 0.23156-0.2316 0.55219-0.3682 0.88469-0.3682h0.51065c1.5734 6e-3 5.0468-0.1484 8.0512-2.4878 0.4453-0.34438 1.0688-0.34438 1.5141 0 3.0044 2.3394 6.4778 2.4938 8.0572 2.4878zm-2.7609 13.876c0.3859-0.7957 0.7066-1.8941 0.95-3.4735 0.2909-1.8881 0.4691-4.4531 0.5522-7.9443-1.8525-0.0535-5.035-0.4097-8.0691-2.4522-3.034 2.0365-6.2165 2.3928-8.0631 2.4522 0.0653 2.8856 0.1959 5.13 0.4037 6.8934 0.2375 2.0069 0.576 3.3666 0.9975 4.3225 0.2791 0.6353 0.5879 1.0925 0.956 1.4962 0.4928 0.5404 1.1162 0.9857 1.9653 1.4963 0.3522 0.2113 0.7405 0.4311 1.1632 0.6704 0.7531 0.4262 1.6153 0.9142 2.5774 1.5265 0.9444-0.6023 1.7942-1.0853 2.5385-1.5084 0.2244-0.1275 0.4391-0.2496 0.644-0.3679 1.045-0.5997 1.8169-1.0984 2.3928-1.6803 0.386-0.3978 0.7007-0.8312 0.9916-1.4309z" clip-rule="evenodd" fill="#3375bb" fill-rule="evenodd"/>
 </g>
 <defs>
  <clipPath id="clip0">
   <rect width="38" height="38" fill="#fff"/>
  </clipPath>
 </defs>
</svg>
