<?xml version="1.0" encoding="UTF-8"?>
<svg width="40" height="40" fill="none" version="1.1" viewBox="0 0 40 40" xmlns="http://www.w3.org/2000/svg">
 <g clip-path="url(#clip0_501_916)" fill="#000">
  <path d="m37.81 2.8875c-3.0626-0.69606-6.193-1.0476-9.3333-1.048-0.44 0-0.888 0.00802-1.3333 0.02674h-0.4107l0.328-0.24062c1.285-0.97218 2.8321-1.5339 4.44-1.6122 0.1547-0.013368 0.2987-0.013368 0.4427-0.013368 1.1311-8.7463e-4 2.2498 0.23669 3.2834 0.69728 1.0337 0.46059 1.9592 1.1339 2.7165 1.9763l0.2667 0.30479zm2.096 5.8658c-0.4054-0.12298-0.76-0.22458-1.088-0.3128-4.734-1.2693-9.6687-1.6062-14.531-0.9919l-0.1893 0.02673-0.2347 0.03209v0.10694c0 0.09182-0.0043 0.17785-0.0085 0.26035v8e-5c-0.0038 0.07601-0.0075 0.14903-0.0075 0.22081v1.3689l0.2827-0.0401 0.4026-0.05347c1.5038-0.18947 3.0178-0.28501 4.5333-0.28607 3.65-0.0013 7.2787 0.55771 10.76 1.6576l0.1706 0.0534v-2.0158zm-14.941 2.2941c-0.3066 0.0401-0.6373 0.0855-1.0106 0.1443l-0.112 0.0161v1.9624l0.152-0.0241c0.4586-0.0748 0.8426-0.131 1.2079-0.1764 1.3754-0.1756 2.7603-0.2649 4.1467-0.2674 3.5633-0.0022 7.1028 0.5822 10.477 1.7298l0.1733 0.0588v-2.0346l-0.0907-0.0294c-4.8203-1.552-9.9219-2.0229-14.944-1.3795zm1.3517 7.1998c-0.9698 0.1212-1.9328 0.2917-2.8853 0.5107l-0.0667 0.016-0.0266 0.0642c-0.2694 0.7134-0.6414 1.3835-1.104 1.9891l-0.2427 0.3155 0.3813-0.1096c2.448-0.7121 4.9844-1.0722 7.5333-1.0695 3.3724-0.0048 6.7141 0.6415 9.8426 1.9036l0.1627 0.0669 0.016-0.1765c0.048-0.5748 0.072-1.1496 0.072-1.7057v-0.1658l-0.0853-0.0321c-4.3356-1.6326-9.002-2.184-13.597-1.6068zm-10.432 5.6626-0.3333 0.2139c-2.5672 1.6473-4.8331 3.7246-6.6987 6.1412-0.99311 1.2804-1.8695 2.6476-2.6186 4.0852l-0.08 0.1551-0.12533-0.123c-0.41333-0.4091-0.82667-0.8476-1.2133-1.2994l-0.05867-0.0695 0.04267-0.0775c2.0492-3.7526 4.9025-7.0032 8.3546-9.518l0.056-0.0401 0.0667 0.0241c0.7104 0.2677 1.4561 0.4298 2.2133 0.4812zm8.8506 2.1121c-4.7186 1.2326-8.8964 3.9988-11.88 7.8656-0.8927 1.149-1.6723 2.3819-2.328 3.6815l-0.056 0.1123 0.112 0.0615c0.4933 0.2674 1.0026 0.5107 1.5146 0.7299l0.112 0.0508 0.056-0.1096c0.5959-1.1774 1.3031-2.2948 2.112-3.3366 2.7086-3.4771 6.4673-5.9813 10.714-7.138 4.2465-1.1566 8.7524-0.9036 12.843 0.7214l0.1147 0.0454 0.0507-0.1123c0.2373-0.5053 0.4586-1.0293 0.6533-1.5533l0.0427-0.1203-0.1174-0.0481c-4.4399-1.7613-9.3239-2.0591-13.944-0.8502zm-7.0959 13.748c0.2267-0.3689 0.4934-0.7298 0.76-1.0694 1.9133-2.4671 4.5044-4.3194 7.4543-5.3288 2.9499-1.0095 6.1298-1.132 9.1483-0.3525l0.2053 0.0534-0.1413 0.1604c-0.4311 0.4959-0.8868 0.9697-1.3653 1.4197l-0.048 0.0455h-0.0667c-2.5327-0.4725-5.1463-0.2384-7.5554 0.6767-2.4091 0.9152-4.5212 2.4762-6.1058 4.5127l-0.0827 0.1096-0.0773 0.1016h-0.064c-0.6614-0.0107-1.3254-0.0535-1.968-0.1257l-0.2107-0.024zm4.76-0.051c2.3878-2.3036 5.5769-3.5839 8.8906-3.5692l0.208 0.0027h0.3973l-0.3226 0.2299c-2.684 1.9159-5.7985 3.1374-9.0667 3.5559l-0.392 0.0481zm-10.904-17.266-0.136 0.1042v-0.0187c-3.0943 2.4152-5.6894 5.412-7.6399 8.8228l-0.104 0.1792-0.11733-0.1711c-0.35733-0.5107-0.69333-1.0561-0.99733-1.6042l-0.03733-0.0668 0.04-0.0669c0.62669-1.0239 1.3086-2.0128 2.0426-2.9623 1.5777-2.0372 3.3943-3.8765 5.4106-5.4782l0.09601-0.0748 0.08 0.1016c0.3678 0.4192 0.778 0.7991 1.224 1.1336zm-3.2881-6.7698-0.05334 0.0374c-2.8834 2.0558-5.4511 4.5239-7.6213 7.3256l-0.26666 0.3369-0.048-0.3021c-0.12151-0.7969-0.19454-1.6005-0.21866-2.4063v-0.0507l0.042666-0.0428c2.3073-2.7267 4.9882-5.112 7.9626-7.085l0.20267-0.1337zm-0.07201-4.3789-0.07733 0.0481c-2.8783 1.7856-5.5113 3.9409-7.832 6.4112l-0.22666 0.238v-2.7672l0.04-0.0347c2.1788-2.1349 4.5894-4.0182 7.1866-5.6146l0.10133-0.06149 0.072 0.09625c0.35343 0.4756 0.59832 1.0232 0.71733 1.6041zm-2.4834-2.8129 0.21597-0.13633-0.2373-0.09624c-0.48586-0.19492-1.0045-0.29473-1.5278-0.29405-0.621-0.00169-1.2342 0.13879-1.7928 0.41073-0.55864 0.27193-1.048 0.66815-1.4307 1.1584-0.57278 0.72366-0.88306 1.6211-0.87988 2.5449v0.7485l0.21864-0.1951c1.6961-1.526 3.5134-2.9108 5.4339-4.1408zm30.675 7.5075c0.0237-0.2391-0.0424-0.4785-0.1855-0.6714-0.143-0.1928-0.3526-0.3252-0.5878-0.3713-3.2681-0.6258-6.6143-0.7296-9.9147-0.3074-0.5466 0.0668-1.1146 0.155-1.6879 0.2673l-0.1094 0.0187v1.1283c0 0.2139 0 0.4384-0.0293 0.6684v0.1737l0.168-0.0347c0.6533-0.123 1.296-0.2246 1.912-0.3021 1.2384-0.1551 2.4852-0.2336 3.7333-0.2353 1.8669 0.0016 3.7294 0.1807 5.5626 0.5347 0.1319 0.0248 0.2675 0.0217 0.3982-0.0091 0.1306-0.0307 0.2535-0.0884 0.3606-0.1695 0.1071-0.081 0.1963-0.1835 0.2617-0.301s0.1056-0.2473 0.1182-0.3813zm2.5169-0.219c0.36 0.1096 0.7146 0.2245 1.0665 0.3475l0.0827 0.0321v2.0557l-0.176-0.0642c-0.5083-0.1871-1.0212-0.36-1.5384-0.5186-0.2124-0.0654-0.3959-0.202-0.5198-0.387-0.1238-0.1849-0.1803-0.407-0.1601-0.6288 0.0131-0.1434 0.0579-0.2821 0.1312-0.4059s0.1733-0.2297 0.2926-0.3098c0.1193-0.0802 0.2549-0.1327 0.397-0.1536s0.2871-0.0098 0.4243 0.0326zm-11.296-11.133c0.0124-0.13859-5e-3 -0.27823-0.0512-0.40947-0.0461-0.13124-0.1198-0.25099-0.2162-0.35114-0.0963-0.10015-0.213-0.17836-0.3422-0.22931-0.1291-0.05095-0.2677-0.07346-0.4063-0.066-0.4399 0.02138-0.8825 0.05346-1.3331 0.09089h-0.0667l-0.0346 0.05346c-0.3485 0.56489-0.6279 1.1698-0.8319 1.8018l-0.064 0.19247 0.2026-0.02138c0.7466-0.08287 1.4958-0.14436 2.2424-0.18713 0.2315-0.01122 0.4511-0.10581 0.6187-0.2664 0.1675-0.16058 0.2716-0.37638 0.2931-0.60774zm11.83 0.33972c0.2544 0.61222 0.4335 1.2533 0.5333 1.9089l0.024 0.22191-0.1947-0.05615c-0.3173-0.09357-0.6106-0.17646-0.8986-0.25399-2.9416-0.78754-5.9646-1.229-9.008-1.3154-0.1333-0.00332-0.2644-0.03428-0.3852-0.09094-0.1207-0.05665-0.2285-0.13777-0.3164-0.23824s-0.1542-0.21812-0.1945-0.34552-0.0539-0.2618-0.0399-0.39473c0.0229-0.24388 0.1372-0.47 0.3198-0.63274s0.42-0.25001 0.6642-0.24419c3.1783 0.08752 6.3355 0.54601 9.408 1.3662l0.0613 0.01605zm-29.003 28.024c-0.1014-0.101-0.2239-0.1783-0.3586-0.2263s-0.27835-0.0655-0.4206-0.0512c-0.14226 0.0144-0.27958 0.0601-0.40211 0.134-0.12253 0.0738-0.22721 0.174-0.30652 0.2932-0.50833 0.7759-0.97385 1.579-1.3945 2.4059l-0.048 0.0963 0.08266 0.0668c0.4426 0.3529 0.90387 0.6924 1.3731 1.0078l0.12532 0.0829 0.06399-0.1337c0.41996-0.8432 0.88916-1.6608 1.4051-2.4486 0.1231-0.1865 0.1783-0.4098 0.1564-0.6322-0.0218-0.2225-0.1194-0.4307-0.2763-0.5895zm13.794-10.649c5.1346-1.2457 10.528-0.8578 15.433 1.1096l0.0987 0.0481-0.0186 0.1043c-0.0267 0.1497-0.0534 0.2968-0.0827 0.4438-0.0827 0.4037-0.1787 0.8181-0.288 1.2245l-0.04 0.1444-0.136-0.0588c-2.8354-1.185-5.8774-1.793-8.9493-1.7886-0.9877 2e-4 -1.9745 0.0618-2.9546 0.1844-5.7525 0.7048-11.037 3.5317-14.824 7.9299-0.0864 0.101-0.1927 0.183-0.3122 0.241s-0.2496 0.0906-0.3822 0.0959c-0.1327 0.0052-0.265-0.017-0.3886-0.0653-0.1237-0.0483-0.2362-0.1217-0.3303-0.2155-0.1765-0.1748-0.2796-0.4107-0.288-0.6593-0.0085-0.2487 0.0784-0.4911 0.2427-0.6775 3.465-3.998 8.0854-6.8153 13.22-8.0609zm13.004 7.6626c-2.2902-0.8255-4.7171-1.2031-7.1492-1.1122-0.1316 0.0058-0.2606 0.0386-0.379 0.0964-0.1185 0.0578-0.2238 0.1393-0.3096 0.2396-0.0857 0.1002-0.15 0.2171-0.1889 0.3432-0.0389 0.1262-0.0516 0.259-0.0372 0.3903 0.028 0.2431 0.1467 0.4666 0.3321 0.6257 0.1854 0.1592 0.424 0.2422 0.6679 0.2325h0.6213c1.8424-0.0018 3.673 0.2943 5.4213 0.8769l0.0907 0.0321 0.0587-0.0829c0.336-0.4705 0.648-0.9545 0.9413-1.4517l0.08-0.1364zm-9.5064-0.2238c0.0677 0.1161 0.1103 0.2451 0.1252 0.3787v-0.0268c0.0285 0.238-0.0328 0.4781-0.172 0.6731-0.1392 0.1949-0.346 0.3306-0.58 0.3803-3.9286 0.8498-7.4321 3.0625-9.8932 6.2482-0.5085 0.6581-0.9701 1.3514-1.3814 2.0747l-0.048 0.0855-0.0933-0.0214c-0.56-0.1256-1.1307-0.2754-1.664-0.4491l-0.1573-0.0508 0.0747-0.1391c0.5078-0.9378 1.092-1.8321 1.7466-2.6735 2.4943-3.2305 5.9608-5.5687 9.8853-6.6679 0.3769-0.0945 0.7529-0.1836 1.128-0.2674 0.1311-0.0281 0.2666-0.0283 0.3978-7e-4 0.1313 0.0276 0.2552 0.0825 0.364 0.1611 0.1088 0.0785 0.2 0.1791 0.2676 0.2951zm-18.64-10.246c-0.25733-0.516-0.45588-1.0594-0.59192-1.6199l-0.048-0.1925-0.15997 0.1203c-0.86211 0.6576-1.6922 1.3553-2.4903 2.0931-0.09623 0.0882-0.17365 0.1949-0.22759 0.3139-0.05395 0.119-0.0833 0.2477-0.08629 0.3783-0.00299 0.1307 0.02045 0.2606 0.06889 0.3819 0.04845 0.1213 0.1209 0.2315 0.21299 0.324 0.1771 0.174 0.41389 0.2734 0.6618 0.2779s0.48812-0.0863 0.67135-0.2538c0.62747-0.581 1.2763-1.1353 1.9464-1.6628l0.08266-0.0641zm-4.5749 2.5396c0.12238 0.0484 0.23361 0.1214 0.32692 0.2144h-0.00533c0.17524 0.1762 0.27627 0.4131 0.28222 0.6619 0.00596 0.2487-0.08362 0.4903-0.25023 0.6747-0.52437 0.581-1.0274 1.1833-1.5091 1.8071-0.54392 0.703-1.0772 1.4516-1.5811 2.2214l-0.13599 0.2085-0.09332-0.2298c-0.26382-0.6472-0.49432-1.3074-0.69057-1.9782l-0.018664-0.0615 0.037328-0.0508c0.31995-0.4518 0.64258-0.8902 0.95986-1.2992 0.51371-0.6558 1.047-1.2929 1.5998-1.9113 0.08751-0.0986 0.19413-0.1781 0.31335-0.2339s0.24853-0.0867 0.38004-0.0907 0.26245 0.0189 0.38483 0.0674z" clip-rule="evenodd" fill="#000" fill-rule="evenodd"/>
 </g>
 <defs>
  <clipPath id="clip0_501_916">
   <rect width="166" height="40" fill="#fff"/>
  </clipPath>
 </defs>
</svg>
