<?xml version="1.0" encoding="UTF-8"?>
<svg width="38.809mm" height="8.0408mm" version="1.1" viewBox="0 0 38.809 8.0408" xmlns="http://www.w3.org/2000/svg">
 <g transform="translate(-37.04 -92.902)">
  <g stroke-width=".26458" aria-label="WallΞTH">
   <path d="m39.22 98.468 0.14469 0.99216 0.21187-0.89397 1.4882-5.2502h0.83713l1.4521 5.2502 0.2067 0.90948 0.16019-1.0128 1.1679-5.1468h0.99732l-1.8241 7.5239h-0.90431l-1.5502-5.4827-0.11885-0.57359-0.11885 0.57359-1.6071 5.4827h-0.90431l-1.819-7.5239h0.99216z"/>
   <path d="m50.118 100.84q-0.08268-0.16536-0.13435-0.5891-0.6666 0.69245-1.5916 0.69245-0.8268 0-1.359-0.46508-0.52708-0.47024-0.52708-1.1885 0-0.8733 0.66144-1.3539 0.6666-0.48574 1.8706-0.48574h0.93015v-0.43924q0-0.50124-0.29971-0.79579-0.29971-0.29971-0.88364-0.29971-0.51158 0-0.8578 0.25837t-0.34622 0.62526h-0.96115q0-0.41857 0.29455-0.80613 0.29971-0.39273 0.80613-0.6201 0.51158-0.22737 1.1213-0.22737 0.96632 0 1.5141 0.48574 0.54775 0.48058 0.56842 1.328v2.5734q0 0.76996 0.19636 1.2247v0.0827zm-1.5864-0.72862q0.44957 0 0.85263-0.23253 0.40306-0.23254 0.58392-0.6046v-1.1472h-0.74928q-1.7569 0-1.7569 1.0283 0 0.44957 0.29971 0.70278 0.29971 0.2532 0.76996 0.2532z"/>
   <path d="m53.462 100.84h-0.95598v-7.9373h0.95598z"/>
   <path d="m56.03 100.84h-0.95598v-7.9373h0.95598z"/>
   <path d="m57.456 100.03h4.8419v0.8113h-4.8419zm0.44957-3.4829h3.8963v0.8113h-3.8963zm-0.4289-3.2297h4.7334v0.81646h-4.7334z"/>
   <path d="m68.949 94.132h-2.4184v6.7074h-0.98699v-6.7074h-2.4132v-0.81646h5.8186z"/>
   <path d="m75.847 100.84h-0.99732v-3.4777h-3.7929v3.4777h-0.99216v-7.5239h0.99216v3.2348h3.7929v-3.2348h0.99732z"/>
  </g>
 </g>
</svg>
