<?xml version="1.0" encoding="UTF-8"?>
<svg width="32" height="32" version="1.1" viewBox="0 0 32 32" xmlns="http://www.w3.org/2000/svg">
 <g id="Artboard" fill-rule="evenodd">
  <g id="site-icon" fill-rule="nonzero">
   <path id="Path" d="M19.017 17.867a16.131 16.131 0 01-9.063 2.116 8.874 8.874 0 01-6.476-2.763 6.929 6.929 0 01-1.371-5.606 7.214 7.214 0 01.659-2.123l.045-.092a14.274 14.274 0 014.957-5.387 14.528 14.528 0 0114.219-.784 14.329 14.329 0 015.532 4.807 14.069 14.069 0 011.033 14.036 14.258 14.258 0 01-4.77 5.547 14.489 14.489 0 01-6.925 2.481l.152 1.728a16.258 16.258 0 007.774-2.787 16 16 0 005.357-6.227A15.788 15.788 0 0028.977 7.06a16.08 16.08 0 00-6.214-5.393 16.3 16.3 0 00-15.962.9 16.016 16.016 0 00-5.555 6.051l-.061.124a8.9 8.9 0 00-.815 2.635 8.662 8.662 0 001.752 6.961 10.482 10.482 0 007.73 3.388 17.741 17.741 0 0010.83-2.869l-1.665-.99z"/>
   <path d="M22.373 19.833a18.979 18.979 0 01-11.463 4.194c-6.891.376-9.764-1.837-9.79-1.86l-.556.678.56-.666L0 23.511c.122.1 2.876 2.3 9.345 2.3.53 0 1.086 0 1.665-.045 7.44-.41 11.528-3.618 12.952-4.988l-1.589-.945z"/>
   <path d="M25.36 21.624a12.79 12.79 0 01-3.429 3.087c-4.663 2.974-10.594 3.358-14.747 3.151L7.1 29.6c.7.034 1.368.05 2.019.05 11.71 0 16.442-5.272 17.764-7.154l-1.524-.885m-.445-6.555a1.389 1.389 0 10-1.406-1.389 1.4 1.4 0 001.406 1.39z"/>
  </g>
 </g>
</svg>
