<?xml version="1.0" encoding="UTF-8"?>
<svg width="100px" height="100px" viewBox="0 0 100 100" version="1.1" xmlns="http://www.w3.org/2000/svg" xmlns:xlink="http://www.w3.org/1999/xlink">
    <title>Untitled 3</title>
    <g id="Page-1" stroke="none" stroke-width="1" fill="none" fill-rule="evenodd">
        <circle id="Oval" fill="#6658EB" cx="50" cy="50" r="50"></circle>
        <path d="M37.6603195,43.0546965 C37.6631299,41.8506527 37.6368025,40.7432223 37.6760074,39.6381164 C37.727202,38.1950135 38.8284574,37.0792115 40.1946137,37.0238508 C41.5306787,36.9697119 42.7510748,38.0356576 42.9271021,39.4327695 C42.9715971,39.7859301 42.9593363,40.1472623 42.9594914,40.5048426 C42.9614822,45.0933361 42.9763117,49.6818955 42.9564902,54.2703088 C42.9392734,58.2556004 44.9321607,60.9574254 48.4455445,62.48756 C51.7352828,63.9203008 54.8956643,63.4353693 57.6307484,61.0369678 C59.6580336,59.2592414 60.519875,56.9361266 60.5141291,54.2588467 C60.5038652,49.4751211 60.5021666,44.6913207 60.5179199,39.9076219 C60.5239937,38.0634094 61.6033385,36.9690145 63.310499,37.00031 C64.8555943,37.0286371 65.9782955,38.1910916 65.9984717,39.8713047 C66.0277734,42.3116471 66.0067211,44.7525885 66.0077105,47.1932764 C66.0087297,49.6990377 65.9776697,52.2053416 66.0191068,54.7104414 C66.0909484,59.0533848 69.7294662,62.8594811 74.0665088,63.1808992 C79.4635066,63.5808701 83.5118363,59.8165984 83.550925,54.3066676 C83.5841605,49.620777 83.5536609,44.93446 83.5657367,40.2483697 C83.56706,39.7334273 83.5814307,39.1933377 83.7319443,38.7091066 C84.0650092,37.637585 85.1525793,36.962601 86.3137314,37.006184 C87.4660621,37.0494361 88.4212385,37.7979154 88.7259611,38.9380748 C88.8170311,39.2788107 88.8527344,39.6438355 88.8532887,39.9978305 C88.8609061,44.8466535 88.9020215,49.695992 88.8467918,54.544198 C88.7714992,61.1524994 84.5698246,66.740715 78.2911369,68.0712338 C72.7250109,69.2507561 67.7787969,67.8157443 63.9349232,63.3733029 C63.7652168,63.1771738 63.5949979,62.9814619 63.4218225,62.7884205 C63.4042869,62.7688701 63.3645723,62.7692098 63.4069453,62.7820129 C62.2677275,63.8374205 61.2556051,65.0058742 60.0290963,65.8700699 C55.5216262,69.0460379 50.6614039,69.460326 45.7271645,67.0593018 C40.8237854,64.673298 37.937967,60.7117111 37.7155402,55.159026 C37.5554512,51.1624748 37.6688967,47.1549654 37.6603195,43.0546965 Z" id="Path" fill="#FEFDFF" fill-rule="nonzero"></path>
        <path d="M32.3800215,45.5978121 C34.7613047,46.2395633 35.3584836,48.4370436 33.658267,50.1705225 C31.6990893,52.1680291 29.6937654,54.120409 27.6975641,56.0812766 C27.4449,56.3294703 27.1261791,56.5104123 26.7712572,56.7716951 C27.1681289,57.1916814 27.3988436,57.4513072 27.6456693,57.6945896 C29.6385715,59.6588369 31.6604117,61.5945453 33.6213449,63.5901447 C35.2053025,65.2021045 34.6126447,67.5873752 32.533125,68.1532736 C31.4372609,68.4514936 30.572785,68.019485 29.8083434,67.2602291 C27.8460811,65.3112764 25.8705596,63.3756752 23.9097455,61.4252801 C23.680132,61.1968871 23.5094318,60.9092648 23.2469881,60.5644459 C22.8550102,60.9172041 22.5920389,61.1365434 22.348533,61.3757129 C20.3522215,63.336491 18.3628346,65.3043385 16.3645412,67.2630961 C15.0914932,68.5109611 13.6236559,68.5903068 12.4847713,67.4888904 C11.3901305,66.4302643 11.468474,64.8586686 12.6950803,63.5922428 C14.8449191,61.3726074 17.0024523,59.1604229 19.2267889,56.8731006 C19.0905641,56.7276592 18.8630441,56.468385 18.618543,56.226259 C16.6071484,54.2344326 14.5858596,52.2525545 12.5814678,50.2537127 C11.3285797,49.004298 11.2482104,47.4977607 12.3415152,46.3590289 C13.4333375,45.2218437 15.0504301,45.2714916 16.3169408,46.5118463 C18.3625857,48.5152359 20.3917826,50.5354162 22.4296758,52.5467332 C22.658042,52.7721162 22.8977064,52.9860551 23.416325,53.4710879 C25.5906637,51.1734541 27.7365188,48.9045348 29.8841754,46.637323 C30.5393676,45.9456529 31.3067416,45.5067957 32.3800215,45.5978121 Z" id="Path" fill="#FEFEFF" fill-rule="nonzero"></path>
    </g>
</svg>