<?xml version="1.0" encoding="UTF-8"?>
<svg width="280" height="291" fill="none" version="1.1" viewBox="0 0 280 291" xmlns="http://www.w3.org/2000/svg">
 <g transform="translate(-6,-16)" filter="url(#filter0_d)">
  <path d="m16 108.48c0-32.371 0-48.557 6.2998-60.921 5.5415-10.876 14.384-19.718 25.26-25.26 12.364-6.2998 28.55-6.2998 60.921-6.2998h75.04c32.371 0 48.557 0 60.921 6.2998 10.875 5.5415 19.718 14.384 25.259 25.26 6.3 12.364 6.3 28.55 6.3 60.921v75.04c0 32.371 0 48.557-6.3 60.921-5.541 10.875-14.384 19.718-25.259 25.259-12.364 6.3-28.55 6.3-60.921 6.3h-75.04c-32.371 0-48.557 0-60.921-6.3-10.876-5.541-19.718-14.384-25.26-25.259-6.2998-12.364-6.2998-28.55-6.2998-60.921z" fill="url(#paint0_linear)"/>
  <g filter="url(#filter1_i)">
   <path d="m129.23 137.6c4.953-2.03 7.017 1.319 3.961 5.244-7.856 10.09-20.019 31.396-4.676 40.897 6.861 4.249 17.113 1.133 25.723-1.729l1.381-0.461c2.275-0.76 4.411-1.471 6.307-1.983 12.176-3.289 25.023-6.422 37.626-3.756 14.478 3.061 24.296 17.578 22.383 32.335-1.899 14.643-14.96 25.192-29.544 25.192h-88.982c-17.273 0.343-29.257-12.195-30.53-27.037-0.2195-2.554-0.1419-5.167 0.2543-7.783 2.5872-17.016 12.241-30.84 24.147-42.489 7.6827-7.516 21.523-15.247 31.743-18.367 0.068-0.02 0.139-0.036 0.207-0.063zm59.363-79.443c17.273-0.3432 29.258 12.195 30.529 27.037 0.22 2.5535 0.144 5.1673-0.254 7.7828-2.586 17.016-12.241 30.84-24.147 42.489-7.682 7.516-21.521 15.247-31.743 18.367-0.067 0.02-0.138 0.037-0.206 0.063-4.953 2.03-7.017-1.319-3.961-5.244 7.856-10.09 20.019-31.396 4.677-40.896-9.087-5.628-24.121 1.662-33.41 4.172-12.178 3.289-25.023 6.422-37.628 3.756-14.478-3.061-24.297-17.578-22.383-32.335 1.8987-14.643 14.96-25.192 29.544-25.192z" fill="url(#paint1_linear)"/>
  </g>
  <path d="m47.559 269.7-0.4539 0.891zm-25.26-25.259-0.891 0.454zm247.4 0-0.891-0.454zm-25.259 25.259-0.454-0.891zm0-247.4 0.454-0.891zm-196.88 0-0.4539-0.891zm-25.26 25.26-0.891-0.4539zm86.18-30.559h75.04v-2h-75.04zm166.52 91.48v75.04h2v-75.04zm-91.48 166.52h-75.04v2h75.04zm-166.52-91.48v-75.04h-2v75.04zm91.48 91.48c-16.202 0-28.293-1e-3 -37.882-0.784-9.5764-0.783-16.568-2.341-22.585-5.407l-0.9079 1.782c6.3465 3.234 13.63 4.826 23.33 5.618 9.6885 0.792 21.875 0.791 38.044 0.791zm-93.48-91.48c0 16.169-8e-4 28.356 0.7908 38.044 0.7925 9.7 2.3843 16.984 5.618 23.331l1.782-0.908c-3.0661-6.018-4.6242-13.009-5.4066-22.586-0.7834-9.588-0.7842-21.679-0.7842-37.881zm33.013 85.289c-10.688-5.445-19.377-14.135-24.822-24.822l-1.782 0.908c5.6374 11.064 14.633 20.059 25.697 25.696zm226.99-85.289c0 16.202-1e-3 28.293-0.784 37.881-0.783 9.577-2.341 16.568-5.407 22.586l1.782 0.908c3.234-6.347 4.826-13.631 5.618-23.331 0.792-9.688 0.791-21.875 0.791-38.044zm-91.48 93.48c16.169 0 28.356 1e-3 38.044-0.791 9.7-0.792 16.984-2.384 23.331-5.618l-0.908-1.782c-6.018 3.066-13.009 4.624-22.586 5.407-9.588 0.783-21.679 0.784-37.881 0.784zm85.289-33.013c-5.445 10.687-14.135 19.377-24.822 24.822l0.908 1.782c11.064-5.637 20.059-14.632 25.696-25.696zm-85.289-226.99c16.202 0 28.293 8e-4 37.881 0.7842 9.577 0.7824 16.568 2.3405 22.586 5.4066l0.908-1.782c-6.347-3.2337-13.631-4.8255-23.331-5.618-9.688-0.7916-21.875-0.7908-38.044-0.7908zm93.48 91.48c0-16.169 1e-3 -28.356-0.791-38.044-0.792-9.7001-2.384-16.984-5.618-23.33l-1.782 0.9079c3.066 6.0176 4.624 13.009 5.407 22.585 0.783 9.5881 0.784 21.68 0.784 37.882zm-33.013-85.289c10.687 5.4456 19.377 14.135 24.822 24.822l1.782-0.9079c-5.637-11.064-14.632-20.059-25.696-25.697zm-135.51-8.1908c-16.169 0-28.356-8e-4 -38.044 0.7908-9.7001 0.7925-16.984 2.3843-23.33 5.618l0.9079 1.782c6.0176-3.0661 13.009-4.6242 22.585-5.4066 9.5881-0.7834 21.68-0.7842 37.882-0.7842zm-91.48 93.48c0-16.202 8e-4 -28.293 0.7842-37.882 0.7824-9.5764 2.3405-16.568 5.4066-22.585l-1.782-0.9079c-3.2337 6.3465-4.8255 13.63-5.618 23.33-0.7916 9.6885-0.7908 21.875-0.7908 38.044zm30.105-87.071c-11.064 5.6374-20.059 14.633-25.697 25.697l1.782 0.9079c5.4456-10.688 14.135-19.377 24.822-24.822z" fill="url(#paint2_linear)"/>
 </g>
 <defs>
  <filter id="filter0_d" x="6" y="16" width="280" height="291" color-interpolation-filters="sRGB" filterUnits="userSpaceOnUse">
   <feFlood flood-opacity="0" result="BackgroundImageFix"/>
   <feColorMatrix in="SourceAlpha" result="hardAlpha" values="0 0 0 0 0 0 0 0 0 0 0 0 0 0 0 0 0 0 127 0"/>
   <feMorphology in="SourceAlpha" radius="13" result="effect1_dropShadow"/>
   <feOffset dy="21"/>
   <feGaussianBlur stdDeviation="11.5"/>
   <feColorMatrix values="0 0 0 0 0.148385 0 0 0 0 0.4625 0 0 0 0 0.440534 0 0 0 0.32 0"/>
   <feBlend in2="BackgroundImageFix" result="effect1_dropShadow"/>
   <feBlend in="SourceGraphic" in2="effect1_dropShadow" result="shape"/>
  </filter>
  <filter id="filter1_i" x="69.828" y="58.148" width="152.34" height="176.2" color-interpolation-filters="sRGB" filterUnits="userSpaceOnUse">
   <feFlood flood-opacity="0" result="BackgroundImageFix"/>
   <feBlend in="SourceGraphic" in2="BackgroundImageFix" result="shape"/>
   <feColorMatrix in="SourceAlpha" result="hardAlpha" values="0 0 0 0 0 0 0 0 0 0 0 0 0 0 0 0 0 0 127 0"/>
   <feOffset dy="1"/>
   <feGaussianBlur stdDeviation="1"/>
   <feComposite in2="hardAlpha" k2="-1" k3="1" operator="arithmetic"/>
   <feColorMatrix values="0 0 0 0 0.262745 0 0 0 0 0.811765 0 0 0 0 0.780392 0 0 0 0.677133 0"/>
   <feBlend in2="shape" result="effect1_innerShadow"/>
  </filter>
  <linearGradient id="paint0_linear" x1="146" x2="146" y1="16" y2="270.88" gradientUnits="userSpaceOnUse">
   <stop stop-color="#fff" offset="0"/>
   <stop stop-color="#E6F7F7" offset=".99909"/>
  </linearGradient>
  <linearGradient id="paint1_linear" x1="79.898" x2="219.81" y1="64.475" y2="229.73" gradientUnits="userSpaceOnUse">
   <stop stop-color="#4FF4BA" offset="0"/>
   <stop stop-color="#43CFC7" stop-opacity=".67713" offset="1"/>
  </linearGradient>
  <linearGradient id="paint2_linear" x1="146" x2="146" y1="16" y2="276" gradientUnits="userSpaceOnUse">
   <stop stop-color="#E7F8F8" offset="0"/>
   <stop stop-color="#E6F8F8" offset="1"/>
  </linearGradient>
 </defs>
</svg>
