<?xml version="1.0" encoding="UTF-8"?>
<svg width="161.51" height="160.96" version="1.1" viewBox="0 0 484.54 482.88" xmlns="http://www.w3.org/2000/svg">
 <title>wallet - clipart</title>
 <style type="text/css">.a{
    fill:beige;
  }
  .b{
    fill:#333;
  }
  .c{
    fill:saddlebrown;
  }</style>
 <g transform="scale(1.6594)">
  <path d="m274 119v-55c0-10-8-18-18-18h-238c-10 0-18 8-18 18v155c0 10 8 18 18 18h237c10 0 18-8 18-18v-55c10 0 18-8 18-18v-9c1-10-7-18-17-18z" fill="#a66333"/>
  <path class="a" d="m46 0h182c10 0 18 8 18 18v128c0 10-8 18-18 18h-182c-10 0-18-8-18-18v-128c-1-10 8-18 18-18z"/>
  <path class="b" d="m228 0h-182c-10 0-19 8-19 18v9h219v-9c0-10-8-18-18-18z"/>
  <g transform="matrix(.047903 0 0 .047903 148.43 34.53)">
   <polygon points="959.8 731 959.8 80.7 420.1 976.3" fill="#8a92b2"/>
   <polygon points="959.8 1295.4 959.8 731 420.1 976.3" fill="#62688f"/>
   <polygon points="959.8 731 1499.6 976.3 959.8 80.7" fill="#62688f"/>
   <polygon points="959.8 731 959.8 1295.4 1499.6 976.3" fill="#454a75"/>
   <polygon points="959.8 1397.6 420.1 1078.7 959.8 1839.3" fill="#8a92b2"/>
   <polygon points="1499.9 1078.7 959.8 1397.6 959.8 1839.3" fill="#62688f"/>
  </g>
  <rect x="45" y="39" width="81.015" height="81.015" fill="#333" stroke-linecap="round" stroke-linejoin="round" stroke-width="608.01"/>
  <path d="m18 73 201 27c10 0 18 8 18 18v155c0 10-8 18-18 18l-201-27c-10 0-18-8-18-18v-191c0 10 8 18 18 18z" fill="#f4b459"/>
  <path class="a" d="m196 164c8 0 14 6 14 14s-6 14-14 14-14-6-14-14 6-14 14-14z"/>
  <path class="c" d="m18 264 201 27c10 0 18-8 18-18v-36l-219-27c-10 0-18-8-18-19v55c0 10 8 18 18 18z"/>
  <path class="c" d="m246 155s46-10 46-18v27s-8 18-18 18l-27 9c-10 0-18-8-18-18-1-10 7-18 17-18z"/>
 </g>
</svg>
